<?xml version="1.0" encoding="UTF-8"?>
<svg width="24px" height="24px" viewBox="0 0 24 24" version="1.1" xmlns="http://www.w3.org/2000/svg" xmlns:xlink="http://www.w3.org/1999/xlink">
    <!-- Generator: Sketch 46.2 (44496) - http://www.bohemiancoding.com/sketch -->
    <title>check-white-big</title>
    <desc>Created with Sketch.</desc>
    <defs></defs>
    <g id="Class-Class-(Edit-view)" stroke="none" stroke-width="1" fill="none" fill-rule="evenodd">
        <g id="gym-edit-profile" transform="translate(-375.000000, -1053.000000)">
            <g id="Branches" transform="translate(225.000000, 643.000000)">
                <g id="btn-add" transform="translate(150.000000, 410.000000)">
                    <g id="btn">
                        <circle id="Oval-3" stroke="#FF6300" stroke-width="2" cx="12" cy="12" r="11"></circle>
                        <path d="M12.8,11.2 L12.8,5.6 C12.8,5.1581722 12.4418278,4.8 12,4.8 C11.5581722,4.8 11.2,5.1581722 11.2,5.6 L11.2,5.6 L11.2,11.2 L5.6,11.2 C5.1581722,11.2 4.8,11.5581722 4.8,12 L4.8,12 C4.8,12.4418278 5.1581722,12.8 5.6,12.8 L5.6,12.8 L11.2,12.8 L11.2,18.4 C11.2,18.8418278 11.5581722,19.2 12,19.2 L12,19.2 C12.4418278,19.2 12.8,18.8418278 12.8,18.4 L12.8,18.4 L12.8,12.8 L18.4,12.8 C18.8418278,12.8 19.2,12.4418278 19.2,12 C19.2,11.5581722 18.8418278,11.2 18.4,11.2 L12.8,11.2 Z" id="Combined-Shape" fill="#FF6300"></path>
                    </g>
                </g>
            </g>
        </g>
    </g>
</svg>