<?xml version="1.0" encoding="UTF-8"?>
<svg width="14px" height="15px" viewBox="0 0 14 15" version="1.1" xmlns="http://www.w3.org/2000/svg" xmlns:xlink="http://www.w3.org/1999/xlink">
    <!-- Generator: Sketch 46.2 (44496) - http://www.bohemiancoding.com/sketch -->
    <title>pin-location</title>
    <desc>Created with Sketch.</desc>
    <defs></defs>
    <g id="Symbols" stroke="none" stroke-width="1" fill="none" fill-rule="evenodd">
        <g id="classes-op5-1" transform="translate(-431.000000, -428.000000)">
            <g id="cards" transform="translate(420.000000, 185.000000)">
                <g id="card1-class">
                    <g id="info" transform="translate(6.000000, 205.000000)">
                        <g id="date" transform="translate(0.000000, 34.000000)">
                            <g id="date-active">
                                <g id="Page-1">
                                    <polygon id="Stroke-1" stroke-opacity="0.00784313771" stroke="#000000" stroke-width="1.33333335e-11" points="0 0 23.9999985 0 23.9999985 23.9999985 0 23.9999985"></polygon>
                                    <path d="M10,10 L8,10 L8,12 L10,12 L10,10 Z M13,10 L11,10 L11,12 L13,12 L13,10 Z M16,10 L14,10 L14,12 L16,12 L16,10 Z M10,13 L8,13 L8,15 L10,15 L10,13 Z M13,13 L11,13 L11,15 L13,15 L13,13 Z M16,13 L14,13 L14,15 L16,15 L16,13 Z M17.4444444,5.5 L16.6666667,5.5 L16.6666667,4 L15.1111111,4 L15.1111111,5.5 L8.88888889,5.5 L8.88888889,4 L7.33333333,4 L7.33333333,5.5 L6.55555556,5.5 C5.69222211,5.5 5.00777777,6.17500007 5.00777777,7 L5,17.5 C5,18.3250002 5.69222211,19 6.55555556,19 L17.4444444,19 C18.3000002,19 19,18.3250002 19,17.5 L19,7 C19,6.17500007 18.3000002,5.5 17.4444444,5.5 Z M18,18 L6,18 L6,7 L18,7 L18,18 Z" id="Fill-2" fill="#151C3D"></path>
                                </g>
                            </g>
                        </g>
                    </g>
                </g>
            </g>
        </g>
    </g>
</svg>