<svg xmlns="http://www.w3.org/2000/svg" xmlns:xlink="http://www.w3.org/1999/xlink" width="180" height="180" viewBox="0 0 180 180">
    <defs>
        <path id="a" d="M0 179.973V.165h179.835v179.808z"/>
        <path id="c" d="M74 57H52v49h76V84H74V57z"/>
    </defs>
    <g fill="none" fill-rule="evenodd">
        <g>
            <mask id="b" fill="#fff">
                <use xlink:href="#a"/>
            </mask>
            <path fill="#FFFFFE" d="M90 3C42.01 3 3 42.01 3 90s39.01 87 87 87 87-39.01 87-87S137.99 3 90 3" mask="url(#b)"/>
            <path fill="#1B2D3F" d="M89.497 6C43.248 6 5 44.023 5 90c0 46.976 38.248 85 84.497 85C136.751 175 175 136.976 175 90c0-45.977-38.249-84-85.503-84zM90 180c-49.5 0-90-40.5-90-90S40.5 0 90 0s90 40.5 90 90-40.5 90-90 90z" mask="url(#b)"/>
        </g>
        <path fill="#FF6300" d="M90 166c-41.944 0-76-34.056-76-76s34.056-76 76-76 76 34.056 76 76-34.056 76-76 76"/>
        <g transform="rotate(-45 90 81.5)">
            <use fill="#FFF" xlink:href="#c"/>
            <path stroke="#1B2D3F" stroke-width="6" d="M71 60H55v43h70V87H71V60z"/>
        </g>
    </g>
</svg>
