<svg xmlns="http://www.w3.org/2000/svg" width="24" height="24" viewBox="0 0 24 24">
    <g fill="none" fill-rule="evenodd">
        <path stroke="none" stroke-opacity=".008" stroke-width="0" d="M0 0h24v24H0z"/>
        <path fill="#C4CFD4" fill-rule="nonzero" d="M20.574 11.979C18.392 5.406 11.937.78 11.662.588L10.83 0l.054.987c0 .043.152 3.87-3.716 7.052-4.2 3.46-4.176 6.314-4.166 7.847l.005.211c0 4.18 3.198 7.305 7.773 7.82a5.701 5.701 0 0 1-.759-.161c-1.475-.438-2.338-1.43-2.504-2.859l-.04-.282c-.132-1.105-.304-2.473 2.216-5.068a18.494 18.494 0 0 0 2.436-3.098l.338-.545.446.47c1.334 1.396 2.353 2.806 3.04 4.18.632 1.212.67 3.13.622 3.54-.24 2.087-1.814 3.643-3.922 3.868-.137.015-.343.03-.594.035.022 0 .043.003.065.003C17.103 24 21 20.159 21 15.256c0-1.176-.412-3.193-.426-3.277z"/>
    </g>
</svg>
