<?xml version="1.0" encoding="UTF-8"?>
<svg width="18px" height="14px" viewBox="0 0 18 14" version="1.1" xmlns="http://www.w3.org/2000/svg" xmlns:xlink="http://www.w3.org/1999/xlink">
    <!-- Generator: Sketch 46.2 (44496) - http://www.bohemiancoding.com/sketch -->
    <title>trainers</title>
    <desc>Created with Sketch.</desc>
    <defs></defs>
    <g id="Trainer-Gym" stroke="none" stroke-width="1" fill="none" fill-rule="evenodd">
        <g id="gym-view" transform="translate(-343.000000, -595.000000)">
            <g id="2-card" transform="translate(322.000000, 414.000000)">
                <g id="followers" transform="translate(18.000000, 174.000000)">
                    <g transform="translate(0.000000, 2.000000)" id="Page-1">
                        <g>
                            <polygon id="Stroke-1" stroke-opacity="0.00784313771" stroke="#000000" stroke-width="1.33333335e-11" points="0 0 23.9999985 0 23.9999985 23.9999985 0 23.9999985"></polygon>
                            <path d="M15.5041738,11.4999997 C14.3944869,11.4999997 13.4999999,10.6070037 13.4999999,9.4999997 C13.4999999,8.39299574 14.3944869,7.4999997 15.5041738,7.4999997 C16.611747,7.4999997 17.5000002,8.390878 17.5000002,9.4999997 C17.5000002,10.6091214 16.611747,11.4999997 15.5041738,11.4999997 Z M9.00500844,10.4999993 C7.61819305,10.4999993 6.49999994,9.38367 6.49999994,7.99999952 C6.49999994,6.61632903 7.61819305,5.4999997 9.00500844,5.4999997 C10.3893908,5.4999997 11.4999999,6.61389104 11.4999999,7.99999952 C11.4999999,9.38610799 10.3893907,10.4999993 9.00500844,10.4999993 Z M14.4999991,18.4999993 L14.4999991,18.9999993 L14.9999991,18.4999993 L14.4999991,18.4999993 Z M3.49999994,18.4999993 L2.99999994,18.4999993 L3.49999994,18.9999993 L3.49999994,18.4999993 Z M14.4999991,18.4999993 L3.49999994,18.4999993 L3.49999994,16.4999995 C3.49999994,14.8994704 6.49758148,13.4999997 8.99999952,13.4999997 C11.5024175,13.4999997 14.4999991,14.8994704 14.4999991,16.4999995 L14.4999991,18.4999993 Z M15.1607285,13.5065833 C15.8535795,14.3600737 16.2302386,15.3619962 16.2302386,16.499999 L16.2302386,18.4999989 L20.4999999,18.4999989 L20.4999999,16.499999 C20.4999999,14.9664228 17.6610459,13.6119217 15.1607285,13.5065833 Z" id="Fill-2" stroke="#151C3D"></path>
                        </g>
                    </g>
                </g>
            </g>
        </g>
    </g>
</svg>