<svg xmlns="http://www.w3.org/2000/svg" width="20" height="20" viewBox="0 0 24 24">
    <g fill="none" fill-rule="evenodd">
        <path stroke="none" stroke-opacity=".008" stroke-width="0" d="M0 0h24v24H0z"/>
        <path stroke="#4b4c4d" d="M15.504 11.5a1.999 1.999 0 0 1-2.004-2c0-1.107.894-2 2.004-2 1.108 0 1.996.89 1.996 2 0 1.11-.888 2-1.996 2zm-6.499-1A2.498 2.498 0 0 1 6.5 8c0-1.384 1.118-2.5 2.505-2.5A2.49 2.49 0 0 1 11.5 8a2.49 2.49 0 0 1-2.495 2.5zm5.495 8v.5l.5-.5h-.5zm-11 0H3l.5.5v-.5zm11 0h-11v-2c0-1.6 2.998-3 5.5-3s5.5 1.4 5.5 3v2zm.755-4.989c.793.899 1.245 1.89 1.245 2.989v2h4v-2c0-1.514-2.768-2.854-5.245-2.989z"/>
    </g>
</svg>
