<?xml version="1.0" encoding="UTF-8"?>
<svg width="18px" height="14px" viewBox="0 0 18 14" version="1.1" xmlns="http://www.w3.org/2000/svg" xmlns:xlink="http://www.w3.org/1999/xlink">
    <!-- Generator: Sketch 46.2 (44496) - http://www.bohemiancoding.com/sketch -->
    <title>trainers</title>
    <desc>Created with Sketch.</desc>
    <defs></defs>
    <g id="Page-1" stroke="none" stroke-width="1" fill="none" fill-rule="evenodd">
        <g id="trainer-profile" transform="translate(-50.000000, -488.000000)">
            <g id="left-side" transform="translate(30.000000, 97.000000)">
                <g id="info" transform="translate(17.000000, 386.000000)">
                    <g id="followers">
                        <g>
                            <g id="Page-1" fill-rule="evenodd" stroke-opacity="0.00784313771" stroke="#000000">
                                <polygon id="Stroke-1" stroke-width="1.33333335e-11" points="0 0 23.9999985 0 23.9999985 23.9999985 0 23.9999985"></polygon>
                            </g>
                            <path d="M15.5041738,11.4999997 C14.3944869,11.4999997 13.4999999,10.6070037 13.4999999,9.4999997 C13.4999999,8.39299574 14.3944869,7.4999997 15.5041738,7.4999997 C16.611747,7.4999997 17.5000002,8.390878 17.5000002,9.4999997 C17.5000002,10.6091214 16.611747,11.4999997 15.5041738,11.4999997 Z M9.00500844,10.4999993 C7.61819305,10.4999993 6.49999994,9.38367 6.49999994,7.99999952 C6.49999994,6.61632903 7.61819305,5.4999997 9.00500844,5.4999997 C10.3893908,5.4999997 11.4999999,6.61389104 11.4999999,7.99999952 C11.4999999,9.38610799 10.3893907,10.4999993 9.00500844,10.4999993 Z M14.4999991,18.4999993 L14.4999991,18.9999993 L14.9999991,18.4999993 L14.4999991,18.4999993 Z M3.49999994,18.4999993 L2.99999994,18.4999993 L3.49999994,18.9999993 L3.49999994,18.4999993 Z M14.4999991,18.4999993 L3.49999994,18.4999993 L3.49999994,16.4999995 C3.49999994,14.8994704 6.49758148,13.4999997 8.99999952,13.4999997 C11.5024175,13.4999997 14.4999991,14.8994704 14.4999991,16.4999995 L14.4999991,18.4999993 Z M15.2549458,13.5111334 C16.0478688,14.4098549 16.5,15.4012774 16.5,16.499999 L16.5,18.4999989 L20.4999999,18.4999989 L20.4999999,16.499999 C20.4999999,14.9856542 17.7318018,13.6459214 15.2549458,13.5111334 Z" id="Fill-2" stroke="#FF6300"></path>
                        </g>
                    </g>
                </g>
            </g>
        </g>
    </g>
</svg>