<?xml version="1.0" encoding="UTF-8"?>
<svg width="17px" height="15px" viewBox="0 0 16 25" version="1.1" xmlns="http://www.w3.org/2000/svg" xmlns:xlink="http://www.w3.org/1999/xlink">
    <!-- Generator: Sketch 46.2 (44496) - http://www.bohemiancoding.com/sketch -->
    <title>womans only</title>
    <desc>Created with Sketch.</desc>
    <defs></defs>
    <g id="Symbols" stroke="none" stroke-width="1" fill="none" fill-rule="evenodd" opacity="0.8">
        <g id="classes-op5-1" transform="translate(-713.000000, -552.000000)">
            <g id="cards" transform="translate(420.000000, 185.000000)">
                <g id="card1-class">
                    <g id="stat" transform="translate(0.000000, 363.000000)">
                        <g id="gender" transform="translate(240.000000, 0.000000)">
                            <g id="icon/woman32" transform="translate(44.000000, 0.000000)">
                                <g id="iocn" transform="translate(9.000000, 4.000000)">
                                    <g id="woman">
                                        <circle id="Oval-4" stroke="#121B3D" stroke-width="2" cx="7.5" cy="10.5" r="6.5"></circle>
                                        <rect id="Rectangle-4" fill="#0F1A3D" x="3" y="20" width="8" height="2" rx="1"></rect>
                                        <rect id="Rectangle-6" fill="#0F1A3D" x="6" y="16.6666667" width="2" height="8" rx="1"></rect>
                                        <path d="M15.869566,0.13202128 C15.7826501,0.0439827531 15.6796101,0 15.5607826,0 L12.0481487,0 C11.9292491,0 11.8262812,0.0439827531 11.7394374,0.13202128 C11.6525214,0.220011126 11.6090034,0.324260231 11.6090034,0.444719913 C11.6090034,0.565179595 11.6525214,0.669453039 11.7394374,0.757491566 L12.9468647,1.98053826 C12.9468647,1.98053826 11.0335401,3.88852292 10.0186149,4.91657883 C9.85144019,5.08591639 10.8598493,6.18003803 11.0629064,5.97435826 C12.2902715,4.73114064 14.0446199,3.09242323 14.0446199,3.09242323 L15.2521433,4.31546993 C15.3389872,4.40350846 15.441931,4.44753989 15.5608547,4.44753989 C15.6797784,4.44753989 15.7827222,4.40350846 15.8696622,4.31546993 C15.9565781,4.22745574 16,4.12323098 16,4.0027713 L16,0.444719913 C15.999976,0.32418721 15.9564099,0.220011126 15.869566,0.13202128 Z" id="Shape" fill="#121B3D" fill-rule="nonzero"></path>
                                    </g>
                                </g>
                            </g>
                        </g>
                    </g>
                </g>
            </g>
        </g>
    </g>
</svg>