<?xml version="1.0" encoding="UTF-8"?>
<svg width="13px" height="18px" viewBox="0 0 13 18" version="1.1" xmlns="http://www.w3.org/2000/svg" xmlns:xlink="http://www.w3.org/1999/xlink">
    <!-- Generator: Sketch 46.2 (44496) - http://www.bohemiancoding.com/sketch -->
    <title>iocn</title>
    <desc>Created with Sketch.</desc>
    <defs>
        <circle id="path-1" cx="5.5" cy="7.5" r="5.5"></circle>
    </defs>
    <g id="Symbols" stroke="none" stroke-width="1" fill="none" fill-rule="evenodd">
        <g id="icon/gender-type-copy-2" transform="translate(-7.000000, -3.000000)">
            <g id="iocn" transform="translate(7.000000, 3.000000)">
                <g id="woman">
                    <g id="Oval-4">
                        <use fill="#FFFFFF" fill-rule="evenodd" xlink:href="#path-1"></use>
                        <circle stroke="#0F1A3D" stroke-width="1" cx="5.5" cy="7.5" r="5"></circle>
                    </g>
                    <rect id="Rectangle-4" fill="#0F1A3D" x="3" y="15" width="5" height="1" rx="0.5"></rect>
                    <rect id="Rectangle-6" fill="#0F1A3D" x="5" y="12" width="1" height="6" rx="0.5"></rect>
                    <path d="M12.891305,0.110017733 C12.8188751,0.0366522943 12.7330085,0 12.6339855,0 L9.70679059,0 C9.60770755,0 9.521901,0.0366522943 9.44953113,0.110017733 C9.37710119,0.183342605 9.34083616,0.270216859 9.34083616,0.370599927 C9.34083616,0.470982995 9.37710119,0.557877533 9.44953113,0.631242972 L10.4557206,1.65044855 C10.4557206,1.65044855 8.86128338,3.24043577 8.01551242,4.09714903 C7.87620016,4.23826366 8.71654106,5.15003169 8.88575531,4.97863189 C9.90855957,3.9426172 11.3705166,2.57701936 11.3705166,2.57701936 L12.3767861,3.59622494 C12.449156,3.66959038 12.5349425,3.70628324 12.6340456,3.70628324 C12.7331486,3.70628324 12.8189352,3.66959038 12.8913851,3.59622494 C12.9638151,3.52287979 13,3.43602582 13,3.33564275 L13,0.370599927 C12.99998,0.270156008 12.9636749,0.183342605 12.891305,0.110017733 Z" id="Shape" fill="#121B3D" fill-rule="nonzero"></path>
                </g>
            </g>
        </g>
    </g>
</svg>