<svg xmlns="http://www.w3.org/2000/svg" width="32" height="32" viewBox="0 0 32 32">
    <g fill="#C7CFD4" fill-rule="evenodd">
        <path d="M13.629 9.57a1.99 1.99 0 0 0-1.1-.352 1.805 1.805 0 0 0-1.366.639 2.344 2.344 0 0 0-.44 1.45c0 .706.214 1.44.642 2.203.207.356.475.658.802.906.328.248.703.372 1.124.372.532-.02.976-.203 1.33-.553.172-.248.282-.502.33-.763.03-.261.045-.48.045-.658 0-.77-.204-1.545-.612-2.327a2.6 2.6 0 0 0-.755-.916M13.493 17.909c-.103-.013-.367 0-.792.038a8.943 8.943 0 0 0-1.285.276c-.103.038-.248.095-.434.172a2.618 2.618 0 0 0-.57.352 2.057 2.057 0 0 0-.473.59c-.148.247-.223.546-.223.895 0 .685.322 1.25.966 1.694.612.445 1.449.673 2.512.686.953-.013 1.68-.216 2.182-.61.49-.387.734-.885.734-1.494 0-.495-.167-.927-.502-1.295-.354-.35-.908-.777-1.661-1.285a4.606 4.606 0 0 0-.454-.02"/>
        <path d="M24 16.571h-2.286v2.286h-1.142v-2.286h-2.286v-1.143h2.286v-2.286h1.142v2.286H24v1.143zm-8.242-6.963a3.677 3.677 0 0 1 .819 1.304c.089.285.133.618.133 1-.012.697-.171 1.255-.479 1.674-.151.203-.31.39-.479.562-.187.171-.385.346-.596.523a2.739 2.739 0 0 0-.335.41.887.887 0 0 0-.18.552.71.71 0 0 0 .185.504c.105.127.207.238.306.333l.686.543c.426.336.8.707 1.122 1.113.303.413.46.952.473 1.62 0 .944-.433 1.782-1.298 2.511-.898.755-2.193 1.146-3.885 1.171-1.416-.013-2.474-.304-3.172-.874C8.353 22.022 8 21.385 8 20.644c0-.36.115-.763.344-1.206.223-.444.625-.833 1.209-1.169a6.464 6.464 0 0 1 2.064-.722 16.316 16.316 0 0 1 1.778-.17 4.1 4.1 0 0 1-.39-.594 1.32 1.32 0 0 1-.199-.737c0-.172.025-.316.076-.43l.123-.335a6.01 6.01 0 0 1-.649.038c-1.077-.013-1.897-.34-2.462-.98-.591-.597-.886-1.292-.886-2.085 0-.958.419-1.827 1.256-2.608.574-.456 1.172-.755 1.792-.894a8.93 8.93 0 0 1 1.725-.18h4.044l-1.249.702h-1.247c.127.077.27.188.429.334zM16 0C7.163 0 0 7.163 0 16c0 8.836 7.163 16 16 16s16-7.164 16-16c0-8.837-7.163-16-16-16z"/>
    </g>
</svg>
