<svg xmlns="http://www.w3.org/2000/svg" xmlns:xlink="http://www.w3.org/1999/xlink" width="20" height="19" viewBox="0 0 20 19">
    <defs>
        <path id="a" d="M10 18.4L8.6 17C3.4 12.4 0 9.3 0 5.5 0 2.4 2.4 0 5.5 0 7.2 0 8.9.8 10 2.1 11.1.8 12.8 0 14.5 0 17.6 0 20 2.4 20 5.5c0 3.8-3.4 6.9-8.6 11.5L10 18.4z"/>
    </defs>
    <g fill="none" fill-rule="evenodd">
        <use fill="#FF4A17" xlink:href="#a"/>
        <path stroke="#FFF" stroke-width="2" d="M10 16.986l.737-.735C17.25 10.491 19 8.361 19 5.5 19 2.952 17.048 1 14.5 1c-1.4 0-2.822.666-3.737 1.746L10 3.648l-.763-.902C8.322 1.666 6.899 1 5.5 1 2.952 1 1 2.952 1 5.5c0 2.86 1.75 4.99 8.307 10.793l.694.693z"/>
    </g>
</svg>
