<svg xmlns="http://www.w3.org/2000/svg" width="24" height="24" viewBox="0 0 24 24">
    <g fill="none" fill-rule="evenodd">
        <path stroke="none" stroke-opacity=".008" stroke-width="0" d="M0 0h24v24H0z"/>
        <path fill="#C2CFD4" d="M17.465 1c-2.275 0-4.359 1.208-5.531 3.142C10.772 2.183 8.774 1 6.535 1 3.12 1 .39 3.758.04 7.56c-.028.168-.14 1.052.204 2.493.498 2.079 1.647 3.97 3.322 5.466L11.928 23l8.506-7.48c1.675-1.497 2.824-3.388 3.322-5.467.345-1.44.232-2.325.204-2.493C23.61 3.76 20.881 1 17.465 1z"/>
    </g>
</svg>
