<?xml version="1.0" encoding="UTF-8"?>
<svg width="15px" height="15px" viewBox="0 0 15 15" version="1.1" xmlns="http://www.w3.org/2000/svg" xmlns:xlink="http://www.w3.org/1999/xlink">
    <!-- Generator: Sketch 41.2 (35397) - http://www.bohemiancoding.com/sketch -->
    <title>icon_settings</title>
    <desc>Created with Sketch.</desc>
    <defs></defs>
    <g id="Page-1" stroke="none" stroke-width="1" fill="none" fill-rule="evenodd">
        <g id="My_profile" transform="translate(-964.000000, -150.000000)" fill="#A8B5CD">
            <g id="popup" transform="translate(847.000000, 54.000000)">
                <g id="text" transform="translate(116.000000, 35.000000)">
                    <g id="icon_settings" transform="translate(1.000000, 61.000000)">
                        <path d="M14.2307702,5.91097656 L13.1780679,5.73277344 C13.0684073,5.3796875 12.9273368,5.03910156 12.7550914,4.71410156 L13.3754569,3.8484375 C13.638564,3.47964844 13.5978721,2.9765625 13.275235,2.6578125 L12.3415535,1.7265625 C12.1660966,1.5515625 11.9341645,1.45464844 11.6866057,1.45464844 C11.4924674,1.45464844 11.3075326,1.51402344 11.1508747,1.62664062 L10.2798956,2.24535156 C9.94151436,2.06714844 9.58750653,1.92035156 9.22092689,1.8109375 L9.04546997,0.773515625 C8.97019582,0.3265625 8.58481723,0.0015625 8.13062663,0.0015625 L6.81156658,0.0015625 C6.35718016,0.0015625 5.97180157,0.3265625 5.89656658,0.773515625 L5.71496084,1.83597656 C5.36400783,1.94539062 5.02237598,2.08910156 4.69668407,2.26414062 L3.83506527,1.64523437 C3.67840731,1.53277344 3.49037859,1.4734375 3.29608355,1.4734375 C3.04856397,1.4734375 2.81357702,1.5703125 2.64129243,1.74535156 L1.70443864,2.6765625 C1.38481723,2.99535156 1.34091384,3.4984375 1.60421671,3.86722656 L2.23084856,4.74535156 C2.05844648,5.0734375 1.92058747,5.41402344 1.81409922,5.76726562 L0.773968668,5.94210937 C0.325848564,6.0171875 0,6.4015625 0,6.85472656 L0,8.17035156 C0,8.62339844 0.325848564,9.00777344 0.773968668,9.0828125 L1.83920366,9.26410156 C1.94890339,9.61398437 2.09298956,9.95472656 2.26848564,10.2797266 L1.65117493,11.1358984 C1.38802872,11.5046875 1.42872063,12.0077734 1.75139687,12.3265625 L2.68507833,13.2577734 C2.86053525,13.4328125 3.09246736,13.5296875 3.33998695,13.5296875 C3.53412533,13.5296875 3.71909922,13.4703516 3.87575718,13.3578906 L4.75617493,12.7328906 C5.07258486,12.8984375 5.40469974,13.0328906 5.74617493,13.1390625 L5.92163185,14.1890234 C5.99690601,14.6359766 6.3822846,14.9609766 6.83651436,14.9609766 L8.15874674,14.9609766 C8.61313316,14.9609766 8.99851175,14.6359766 9.07362924,14.1890234 L9.25214099,13.1390625 C9.60630548,13.0296875 9.94778068,12.8891406 10.2736292,12.7171875 L11.1415144,13.3358984 C11.2981723,13.4483594 11.486201,13.5078906 11.6803394,13.5078906 C11.9278982,13.5078906 12.1597911,13.4109766 12.3352872,13.2359766 L13.2689687,12.3047266 C13.5885509,11.9859766 13.6322977,11.4828906 13.3691514,11.1140625 L12.7488251,10.2452344 C12.9212272,9.9171875 13.0653525,9.57660156 13.1718016,9.2265625 L14.2245039,9.0515625 C14.672624,8.97664062 14.9984726,8.59226562 14.9984726,8.1390625 L14.9984726,6.82347656 C15.0047389,6.37027344 14.6788903,5.98589844 14.2307702,5.91097656 L14.2307702,5.91097656 Z M14.1587467,8.1390625 C14.1587467,8.17964844 14.1305875,8.21398437 14.0898956,8.22023437 L12.7738903,8.4390625 C12.6079112,8.46714844 12.476201,8.5890625 12.4355091,8.74851562 C12.3164491,9.2078125 12.1347258,9.64847656 11.8904178,10.0578516 C11.8057833,10.2016016 11.8120888,10.3796875 11.9090601,10.5171484 L12.6830287,11.6046484 C12.7048825,11.6359375 12.7018277,11.6827734 12.6737076,11.7110156 L11.7400261,12.6422656 C11.7179765,12.6640625 11.6961227,12.6671094 11.6803394,12.6671094 C11.6616971,12.6671094 11.6459138,12.6608594 11.6333812,12.6515625 L10.5462533,11.8796094 C10.4114883,11.7828906 10.2297258,11.7766016 10.0856397,11.8610156 C9.67515666,12.1046875 9.23349869,12.2859375 8.77284595,12.4046875 C8.60992167,12.4452734 8.4876893,12.5796875 8.46258486,12.7421875 L8.24013055,14.0547656 C8.23386423,14.0953516 8.19943864,14.1234375 8.15874674,14.1234375 L6.83972585,14.1234375 C6.79903394,14.1234375 6.7644517,14.0953516 6.75818538,14.0547656 L6.53894256,12.7421875 C6.51062663,12.5766406 6.38855091,12.4452734 6.22868146,12.4046875 C5.78075718,12.2890234 5.34826371,12.1109375 4.944047,11.8796094 C4.87828982,11.8422266 4.80317232,11.8234766 4.73110966,11.8234766 C4.64651436,11.8234766 4.55866841,11.8484766 4.48664491,11.9016016 L3.39003916,12.6796484 C3.37441253,12.6891016 3.35882507,12.6953516 3.34304178,12.6953516 C3.33050914,12.6953516 3.3054047,12.6921484 3.28355091,12.6703125 L2.34986945,11.7390625 C2.32171018,11.7110156 2.31849869,11.6672266 2.3405483,11.6328906 L3.11126632,10.5546875 C3.20843342,10.4172266 3.21454308,10.2359375 3.13010444,10.0921875 C2.88563969,9.68601562 2.69761097,9.24535156 2.57859008,8.78589844 C2.53468668,8.62660156 2.40309399,8.5046875 2.24016971,8.47660156 L0.914843342,8.25152344 C0.874151436,8.24527344 0.846031332,8.2109375 0.846031332,8.17035156 L0.846031332,6.85472656 C0.846031332,6.81398437 0.874151436,6.7796875 0.914843342,6.77339844 L2.22137076,6.55476562 C2.38750653,6.52652344 2.52211488,6.40476562 2.56296345,6.24226562 C2.67877285,5.7828125 2.85748042,5.33910156 3.09873368,4.9296875 C3.18332898,4.7859375 3.17385117,4.60789062 3.07672324,4.4734375 L2.29664491,3.3796875 C2.2745953,3.3484375 2.27780679,3.3015625 2.30596606,3.27351562 L3.23964752,2.34226562 C3.26165796,2.32027344 3.28355091,2.31722656 3.29913838,2.31722656 C3.3179765,2.31722656 3.33372063,2.32347656 3.34625326,2.3328125 L4.42711488,3.10152344 C4.56497389,3.1984375 4.74669713,3.2046875 4.89082245,3.1203125 C5.29821149,2.87664062 5.73990862,2.68910156 6.20052219,2.57039062 C6.36023499,2.52660156 6.48250653,2.39535156 6.51062663,2.23285156 L6.73629243,0.910976562 C6.74255875,0.870234375 6.77698433,0.8421875 6.81767624,0.8421875 L8.13689295,0.8421875 C8.17758486,0.8421875 8.21201044,0.870234375 8.21827676,0.910976562 L8.43763708,2.21410156 C8.46579634,2.37964844 8.58802872,2.5140625 8.750953,2.55464844 C9.22402089,2.67335937 9.67515666,2.85785156 10.0951175,3.10472656 C10.2392037,3.18914062 10.4177546,3.18285156 10.5556136,3.08597656 L11.6365927,2.31097656 C11.6522193,2.30152344 11.6679634,2.29527344 11.6835509,2.29527344 C11.6961227,2.29527344 11.721188,2.29847656 11.7430809,2.32027344 L12.6767624,3.25152344 C12.7048825,3.27976562 12.708094,3.32339844 12.6862402,3.35789062 L11.9122715,4.4421875 C11.8151436,4.57660156 11.8088773,4.75789062 11.8934726,4.90160156 C12.1379373,5.31101562 12.3195431,5.75152344 12.4387206,6.21097656 C12.4794125,6.37347656 12.6140209,6.49523437 12.7769452,6.52027344 L14.0929504,6.74214844 C14.1336423,6.74839844 14.1619582,6.78289062 14.1619582,6.82347656 L14.1619582,8.1390625 L14.1587467,8.1390625 Z" id="Fill-1"></path>
                        <path d="M7.50078329,4.25160156 C5.71496084,4.25160156 4.2641906,5.6984375 4.2641906,7.47972656 C4.2641906,9.26089844 5.71496084,10.7077344 7.50078329,10.7077344 C9.28672324,10.7077344 10.7373368,9.26089844 10.7373368,7.47972656 C10.7373368,5.6984375 9.28672324,4.25160156 7.50078329,4.25160156 L7.50078329,4.25160156 Z M7.50078329,9.8640625 C6.18172324,9.8640625 5.11018277,8.79535156 5.11018277,7.47972656 C5.11018277,6.16414063 6.18172324,5.09523438 7.50078329,5.09523438 C8.81980418,5.09523438 9.89134465,6.16414063 9.89134465,7.47972656 C9.89134465,8.79535156 8.81980418,9.8640625 7.50078329,9.8640625 L7.50078329,9.8640625 Z" id="Fill-3"></path>
                    </g>
                </g>
            </g>
        </g>
    </g>
</svg>