<?xml version="1.0" encoding="UTF-8"?>
<svg width="7px" height="16px" viewBox="0 0 7 16" version="1.1" xmlns="http://www.w3.org/2000/svg" xmlns:xlink="http://www.w3.org/1999/xlink">
    <!-- Generator: Sketch 46.2 (44496) - http://www.bohemiancoding.com/sketch -->
    <title>trainers</title>
    <desc>Created with Sketch.</desc>
    <defs></defs>
    <g id="Trainer-Gym" stroke="none" stroke-width="1" fill="none" fill-rule="evenodd">
        <g id="gym-view" transform="translate(-348.000000, -448.000000)" fill="#0F1A3D">
            <g id="2-card" transform="translate(322.000000, 414.000000)">
                <g id="bio" transform="translate(18.000000, 29.000000)">
                    <g id="info-dark" transform="translate(0.000000, 1.000000)">
                        <path d="M10.1680124,20 C9.37981366,20 8.80217391,19.478 9.35372671,17.1815 L10.2583851,13.1085 C10.4158385,12.456 10.4419255,12.1955 10.2583851,12.1955 C10.0217391,12.1955 8.99875776,12.646 8.39363354,13.09 L8,12.385 C9.9173913,10.637 12.1236025,9.6115 13.0692547,9.6115 C13.8569876,9.6115 13.988354,10.6295 13.5947205,12.195 L12.5586957,16.477 C12.3746894,17.2335 12.453882,17.494 12.6369565,17.494 C12.8736025,17.494 13.6487578,17.18 14.4104037,16.5275 L14.8571429,17.1805 C12.9919255,19.216 10.9562112,20 10.1680124,20 M13.2416149,4 C14.2399068,4 14.7388199,4.7305 14.7388199,5.566 C14.7388199,6.61 13.8718944,7.575 12.7427019,7.575 C11.7970497,7.575 11.2450311,6.9745 11.2715839,5.9835 C11.2715839,5.148 11.9279503,4 13.2416149,4" id="info"></path>
                    </g>
                </g>
            </g>
        </g>
    </g>
</svg>