<svg xmlns="http://www.w3.org/2000/svg" width="6" height="14" viewBox="0 0 6 14">
    <path fill="#C2CFD4" fill-rule="evenodd" d="M1.897 14c-.69 0-1.195-.457-.712-2.466l.791-3.564c.138-.571.16-.799 0-.799-.207 0-1.102.394-1.632.783L0 7.337C1.678 5.807 3.608 4.91 4.436 4.91c.689 0 .804.89.46 2.26l-.907 3.747c-.161.662-.092.89.068.89.207 0 .886-.275 1.552-.845l.391.57C4.368 13.315 2.587 14 1.897 14m2.69-14c.873 0 1.31.64 1.31 1.37 0 .914-.76 1.758-1.747 1.758-.828 0-1.31-.525-1.287-1.392C2.863 1.005 3.437 0 4.586 0"/>
</svg>
