<?xml version="1.0" encoding="UTF-8"?>
<svg width="6px" height="14px" viewBox="0 0 6 14" version="1.1" xmlns="http://www.w3.org/2000/svg" xmlns:xlink="http://www.w3.org/1999/xlink">
    <!-- Generator: Sketch 46.2 (44496) - http://www.bohemiancoding.com/sketch -->
    <title>info</title>
    <desc>Created with Sketch.</desc>
    <defs></defs>
    <g id="User-Settings" stroke="none" stroke-width="1" fill="none" fill-rule="evenodd">
        <g id="user-membership-option1" transform="translate(-531.000000, -302.000000)" fill="#C2CFD4">
            <g id="plans" transform="translate(30.000000, 97.000000)">
                <g id="ready" transform="translate(211.000000, 152.000000)">
                    <g id="card" transform="translate(0.000000, 25.000000)">
                        <g id="info-icon" transform="translate(278.000000, 20.000000)">
                            <path d="M13.8970109,22 C13.207337,22 12.7019022,21.54325 13.1845109,19.5338125 L13.976087,15.9699375 C14.1138587,15.399 14.1366848,15.1710625 13.976087,15.1710625 C13.7690217,15.1710625 12.873913,15.56525 12.3444293,15.95375 L12,15.336875 C13.6777174,13.807375 15.6081522,12.9100625 16.4355978,12.9100625 C17.1248641,12.9100625 17.2398098,13.8008125 16.8953804,15.170625 L15.9888587,18.917375 C15.8278533,19.5793125 15.8971467,19.80725 16.057337,19.80725 C16.2644022,19.80725 16.942663,19.5325 17.6091033,18.9615625 L18,19.5329375 C16.3679348,21.314 14.5866848,22 13.8970109,22 M16.586413,8 C17.4599185,8 17.8964674,8.6391875 17.8964674,9.37025 C17.8964674,10.28375 17.1379076,11.128125 16.1498641,11.128125 C15.3224185,11.128125 14.8394022,10.6026875 14.8626359,9.7355625 C14.8626359,9.0045 15.4369565,8 16.586413,8" id="info"></path>
                        </g>
                    </g>
                </g>
            </g>
        </g>
    </g>
</svg>