<?xml version="1.0" encoding="UTF-8"?>
<svg width="16px" height="23px" viewBox="0 0 16 23" version="1.1" xmlns="http://www.w3.org/2000/svg" xmlns:xlink="http://www.w3.org/1999/xlink">
    <!-- Generator: Sketch 46.2 (44496) - http://www.bohemiancoding.com/sketch -->
    <title>Page 1</title>
    <desc>Created with Sketch.</desc>
    <defs></defs>
    <g id="Symbols" stroke="none" stroke-width="1" fill="none" fill-rule="evenodd">
        <g id="location-white" transform="translate(-4.000000, 0.000000)">
            <g id="Page-1" transform="translate(4.000000, 0.000000)">
                <path d="M8,21.1788924 C8.15614075,21.0020007 8.31999921,20.8136315 8.49040592,20.6146148 C9.40995518,19.5406804 10.3295887,18.3809955 11.1861222,17.1812188 C13.5725782,13.8384256 15,10.8418895 15,8.66666667 C15,4.73860373 11.8998375,1.66666667 8,1.66666667 C4.10016247,1.66666667 1,4.7386037 1,8.66666667 C1,9.81026562 1.40277794,11.2126461 2.16402148,12.8051587 C2.82266199,14.183027 3.72667145,15.6583305 4.81387778,17.1812188 C5.67041131,18.3809955 6.59004482,19.5406804 7.50959408,20.6146148 C7.68000079,20.8136315 7.84385925,21.0020007 8,21.1788924 Z" id="Fill-2" stroke="#FFFFFF" stroke-width="2"></path>
                <path d="M5,8.66666667 C5,7.0166668 6.3499994,5.66666667 8,5.66666667 C9.65000045,5.66666667 11,7.0166668 11,8.66666667 C11,10.3166672 9.6649994,11.6666667 8,11.6666667 C6.3499994,11.6666667 5,10.3166672 5,8.66666667 Z" id="Path" fill="#FFFFFF"></path>
            </g>
        </g>
    </g>
</svg>