<?xml version="1.0" encoding="UTF-8"?>
<svg width="10px" height="14px" viewBox="0 0 10 14" version="1.1" xmlns="http://www.w3.org/2000/svg" xmlns:xlink="http://www.w3.org/1999/xlink">
    <!-- Generator: Sketch 46.2 (44496) - http://www.bohemiancoding.com/sketch -->
    <title>pin-location</title>
    <desc>Created with Sketch.</desc>
    <defs></defs>
    <g id="User-Class" stroke="none" stroke-width="1" fill="none" fill-rule="evenodd">
        <g id="gym-view" transform="translate(-39.000000, -611.000000)">
            <g id="map" transform="translate(30.000000, 414.000000)">
                <g id="seats" transform="translate(2.000000, 192.000000)">
                    <g id="pin">
                        <g id="Page-1" transform="translate(7.000000, 5.000000)">
                            <path d="M4.9999997,13.2503274 C5.12448641,13.1077462 5.25767383,12.9521419 5.39791404,12.7846786 C5.97473639,12.0958848 6.55162526,11.3500014 7.08920549,10.5752534 C7.82163777,9.51968912 8.42145,8.49520977 8.8420846,7.538266 C9.27243799,6.55921198 9.4999994,5.68310049 9.4999994,4.94117647 C9.4999994,2.49276991 7.48350603,0.5 4.9999997,0.5 C2.51649333,0.5 0.5,2.49276989 0.5,4.94117647 C0.5,5.68310049 0.727561412,6.55921198 1.1579148,7.538266 C1.5785494,8.49520977 2.17836163,9.51968912 2.91079391,10.5752534 C3.44837414,11.3500014 4.02526301,12.0958848 4.60208536,12.7846786 C4.74232557,12.9521419 4.87551299,13.1077462 4.9999997,13.2503274 Z" id="Fill-2" stroke="#151C3D"></path>
                            <path d="M3,5 C3,3.90000009 3.8999996,3 5,3 C6.1000003,3 7,3.90000009 7,5 C7,6.10000038 6.1099996,7 5,7 C3.8999996,7 3,6.10000038 3,5 Z" id="Path" fill="#171D3D"></path>
                        </g>
                    </g>
                </g>
            </g>
        </g>
    </g>
</svg>