<?xml version="1.0" encoding="UTF-8"?>
<svg width="15px" height="20px" viewBox="0 0 15 20" version="1.1" xmlns="http://www.w3.org/2000/svg">
    <!-- Generator: Sketch 46.2 (44496) - http://www.bohemiancoding.com/sketch -->
    <title>pin</title>
    <desc>Created with Sketch.</desc>
    <defs></defs>
    <g id="Symbols" stroke="none" stroke-width="1" fill="none" fill-rule="evenodd">
        <g id="pin-ltl" transform="translate(-5.000000, -2.000000)" fill="#FF6300">
            <g id="pin" transform="translate(5.000000, 2.000000)">
                <path d="M13.4808252,11.953271 L7.50101252,20 L1.51116944,11.94081 C-0.755709494,9.12538941 -0.430556137,4.5 2.20661313,2.04283489 C3.62090485,0.725856698 5.50077606,0 7.50101252,0 C9.50041312,0 11.3802843,0.725856698 12.7954119,2.04283489 C15.4325812,4.5 15.7568987,9.12538941 13.4808252,11.953271 Z M7.5,11.6666667 C9.79829945,11.6666667 11.6666667,9.79705976 11.6666667,7.50079898 C11.6666667,5.20294024 9.79829945,3.33333333 7.5,3.33333333 C5.20170055,3.33333333 3.33333333,5.20294024 3.33333333,7.50079898 C3.33333333,9.79705976 5.20170055,11.6666667 7.5,11.6666667 Z" id="Combined-Shape"></path>
            </g>
        </g>
    </g>
</svg>