<?xml version="1.0" encoding="UTF-8"?>
<svg width="25px" height="27px" viewBox="0 0 25 27" version="1.1" xmlns="http://www.w3.org/2000/svg" xmlns:xlink="http://www.w3.org/1999/xlink">
    <!-- Generator: Sketch 46.2 (44496) - http://www.bohemiancoding.com/sketch -->
    <title>Shape</title>
    <desc>Created with Sketch.</desc>
    <defs></defs>
    <g id="Symbols" stroke="none" stroke-width="1" fill="none" fill-rule="evenodd">
        <g id="ic_notifications" transform="translate(-8.000000, -6.000000)" fill="#82848B">
            <g id="Shape">
                <path d="M24,30 L17,30 C17,31.6070977 18.6154004,33 20.5404004,33 C22.4654004,33 24,31.6070977 24,30 Z M30.0588235,18.325 C30.0588235,13.8735 26.9264706,10.147 22.7058824,9.161 L22.7058824,8.175 C22.7058824,6.9715 21.7205882,6 20.5,6 C19.2794118,6 18.2941176,6.9715 18.2941176,8.175 L18.2941176,9.161 C14.0735294,10.147 10.9411765,13.8735 10.9411765,18.325 L10.9411765,24.276416 L8,27.274707 L8,29.0150146 L33,29.0150146 L33,27.274707 L30.0588235,24.276416 L30.0588235,18.325 Z"></path>
            </g>
        </g>
    </g>
</svg>