<?xml version="1.0" encoding="UTF-8"?>
<svg width="64px" height="64px" viewBox="0 0 64 64" version="1.1" xmlns="http://www.w3.org/2000/svg" xmlns:xlink="http://www.w3.org/1999/xlink">
    <!-- Generator: Sketch 46.2 (44496) - http://www.bohemiancoding.com/sketch -->
    <title>FAB</title>
    <desc>Created with Sketch.</desc>
    <defs>
        <circle id="path-1" cx="28" cy="28" r="28"></circle>
        <filter x="-12.5%" y="-8.9%" width="125.0%" height="125.0%" filterUnits="objectBoundingBox" id="filter-2">
            <feOffset dx="0" dy="2" in="SourceAlpha" result="shadowOffsetOuter1"></feOffset>
            <feGaussianBlur stdDeviation="2" in="shadowOffsetOuter1" result="shadowBlurOuter1"></feGaussianBlur>
            <feColorMatrix values="0 0 0 0 0.717647059   0 0 0 0 0.780392157   0 0 0 0 0.831372549  0 0 0 1 0" type="matrix" in="shadowBlurOuter1"></feColorMatrix>
        </filter>
    </defs>
    <g id="Gym-Schedule" stroke="none" stroke-width="1" fill="none" fill-rule="evenodd">
        <g id="gym-timetable-(few-classes)" transform="translate(-1124.000000, -747.000000)">
            <g id="FAB" transform="translate(1128.000000, 749.000000)">
                <g>
                    <g id="Oval-2">
                        <use fill="black" fill-opacity="1" filter="url(#filter-2)" xlink:href="#path-1"></use>
                        <use fill="#3D85EA" fill-rule="evenodd" xlink:href="#path-1"></use>
                    </g>
                    <path d="M29,27.0002592 L29,17.0001364 C29,16.4478667 28.552297,16.0001637 28.0000273,16.0001637 L28.0000273,16.0001637 L28.0000273,16.0001637 C27.4477576,16.0001637 27.0000546,16.4478667 27.0000546,17.0001364 L27.0000546,17.0001364 L27.0000546,27.0002592 L16.9999318,27.0002592 C16.4476621,27.0002592 15.9999591,27.4479622 15.9999591,28.0002319 C15.9999591,28.5525016 16.4476621,29.0002046 16.9999318,29.0002046 L16.9999318,29.0002046 L27.0000546,29.0002046 L27.0000546,39.000191 C27.0000546,39.5524607 27.4477576,40.0001637 28.0000273,40.0001637 C28.552297,40.0001637 29,39.5524607 29,39.000191 L29,39.000191 L29,29.0002046 L38.9999864,29.0002046 C39.552256,29.0002046 39.9999591,28.5525016 39.9999591,28.0002319 C39.9999591,27.4479622 39.552256,27.0002592 38.9999864,27.0002592 L29,27.0002592 Z" id="Combined-Shape" fill="#FFFFFF"></path>
                </g>
            </g>
        </g>
    </g>
</svg>