<?xml version="1.0" encoding="UTF-8"?>
<svg width="24px" height="24px" viewBox="0 0 24 24" version="1.1" xmlns="http://www.w3.org/2000/svg" xmlns:xlink="http://www.w3.org/1999/xlink">
    <!-- Generator: Sketch 46.2 (44496) - http://www.bohemiancoding.com/sketch -->
    <title>Combined Shape</title>
    <desc>Created with Sketch.</desc>
    <defs></defs>
    <g id="Symbols" stroke="none" stroke-width="1" fill="none" fill-rule="evenodd">
        <g id="search" transform="translate(-8.000000, -8.000000)" fill="#FFFFFF">
            <path d="M26.0190695,24.1499264 L31.6784189,30.0217413 C32.1196613,30.4868464 32.104689,31.2278007 31.6467129,31.6741587 C31.4309357,31.8848396 31.1473428,32 30.8478968,32 C30.5317171,32 30.2366748,31.8732343 30.0173747,31.6420209 L24.4044488,25.8184422 C22.6713857,27.2399853 20.4560404,28.0940203 18.044669,28.0940203 C12.5050706,28.0940203 8,23.5868491 8,18.046333 C8,12.5071712 12.5050706,8 18.044669,8 C23.5842674,8 28.089338,12.5071712 28.089338,18.046333 C28.089338,20.3401525 27.3171561,22.4568538 26.0190695,24.1499264 Z M18.044669,11.014103 C14.1669501,11.014103 11.0134007,14.1691229 11.0134007,18.0465362 C11.0134007,21.9248974 14.1669501,25.0799173 18.044669,25.0799173 C21.9223879,25.0799173 25.0759373,21.9248974 25.0759373,18.0465362 C25.0759373,14.1691229 21.9223879,11.014103 18.044669,11.014103 Z" id="Combined-Shape"></path>
        </g>
    </g>
</svg>