<svg xmlns="http://www.w3.org/2000/svg" width="24" height="24" viewBox="0 0 24 24">
    <g fill="none" fill-rule="evenodd">
        <path stroke="none" stroke-opacity=".008" d="M0 0h24v24H0z"/>
        <path fill="#C2CFD4" d="M23.631 8.827l-7.77-1.185-3.475-7.39A.428.428 0 0 0 12 0a.427.427 0 0 0-.385.252L8.14 7.642.37 8.829a.435.435 0 0 0-.348.306.467.467 0 0 0 .109.462l5.624 5.753-1.329 8.124a.462.462 0 0 0 .172.44.406.406 0 0 0 .451.034L12 20.113l6.951 3.834a.413.413 0 0 0 .453-.033.463.463 0 0 0 .17-.44l-1.327-8.125 5.623-5.753a.465.465 0 0 0 .109-.462.437.437 0 0 0-.348-.307z"/>
    </g>
</svg>
