<?xml version="1.0" encoding="UTF-8"?>
<svg width="18px" height="18px" viewBox="0 0 18 18" version="1.1" xmlns="http://www.w3.org/2000/svg">
    <!-- Generator: Sketch 46.2 (44496) - http://www.bohemiancoding.com/sketch -->
    <title>womans only</title>
    <desc>Created with Sketch.</desc>
    <defs></defs>
    <g id="User-Classes" stroke="none" stroke-width="1" fill="none" fill-rule="evenodd">
        <g id="classes-f0p5-5" transform="translate(-43.000000, -454.000000)" fill="#FF6300">
            <g id="left-side" transform="translate(0.000000, 67.000000)">
                <g id="tag" transform="translate(30.000000, 250.000000)">
                    <g id="bubble4" transform="translate(0.000000, 129.000000)">
                        <g id="class" transform="translate(10.000000, 5.000000)">
                            <path d="M20.7232249,9.62029881 L14.8953099,8.7311124 L12.2892131,3.18899711 C12.2343298,3.07289889 12.1228482,3 12.0002184,3 C11.8775887,3 11.7652495,3.07289889 11.7112238,3.18899711 L9.10426949,8.73201239 L3.27635443,9.6211988 C3.15458222,9.63919852 3.05424878,9.72829716 3.015659,9.85069529 C2.97792676,9.97309342 3.00965614,10.1080914 3.09712632,10.19719 L7.31541857,14.511724 L6.31894458,20.6046309 C6.29836336,20.730629 6.3481013,20.859327 6.44757719,20.9349259 C6.54705308,21.0114247 6.67825835,21.0213245 6.78630975,20.9601255 L12.0002184,18.0846694 L17.2132696,20.9601255 C17.2604349,20.9862251 17.3118879,20.9997249 17.363341,20.9997249 C17.4302299,20.9997249 17.4962614,20.9781252 17.5528597,20.9349259 C17.651478,20.859327 17.701216,20.730629 17.6806348,20.6046309 L16.6850183,14.511724 L20.902453,10.19719 C20.9907808,10.1071914 21.0216526,9.97309342 20.9839203,9.85069529 C20.9461881,9.72829716 20.8449971,9.63919852 20.7232249,9.62029881 Z" id="Fill-1"></path>
                        </g>
                    </g>
                </g>
            </g>
        </g>
    </g>
</svg>