<?xml version="1.0" encoding="UTF-8"?>
<svg width="14px" height="14px" viewBox="0 0 14 14" version="1.1" xmlns="http://www.w3.org/2000/svg" xmlns:xlink="http://www.w3.org/1999/xlink">
    <!-- Generator: Sketch 46.2 (44496) - http://www.bohemiancoding.com/sketch -->
    <title>Fill 1</title>
    <desc>Created with Sketch.</desc>
    <defs>
        <path d="M18.7847305,10.1491213 L14.2519077,9.45753187 L12.2249435,5.14699775 C12.1822565,5.05669913 12.0955486,5 12.0001699,5 C11.9047912,5 11.8174163,5.05669913 11.7753963,5.14699775 L9.74776516,9.45823186 L5.21494234,10.1498213 C5.12023062,10.1638211 5.0421935,10.23312 5.01217922,10.3283186 C4.98283193,10.4235171 5.00751033,10.5285155 5.07554269,10.5978144 L8.35643667,13.9535631 L7.58140134,18.6924907 C7.56539372,18.7904892 7.60407879,18.8905877 7.68144893,18.9493868 C7.75881906,19.0088859 7.86086761,19.0165858 7.94490758,18.9689865 L12.0001699,16.7325207 L16.0547652,18.9689865 C16.0914494,18.9892862 16.1314684,18.999786 16.1714874,18.999786 C16.2235122,18.999786 16.2748699,18.9829863 16.3188909,18.9493868 C16.395594,18.8905877 16.4342791,18.7904892 16.4182715,18.6924907 L15.6439031,13.9535631 L18.9241301,10.5978144 C18.9928295,10.5278155 19.0168409,10.4235171 18.9874936,10.3283186 C18.9581463,10.23312 18.8794422,10.1638211 18.7847305,10.1491213 Z" id="path-1"></path>
    </defs>
    <g id="Symbols" stroke="none" stroke-width="1" fill="none" fill-rule="evenodd">
        <g id="class-type" transform="translate(-5.000000, -5.000000)">
            <g id="Fill-1">
                <use fill="#FFFFFF" fill-rule="evenodd" xlink:href="#path-1"></use>
                <path stroke="#0F1A3D" stroke-width="1" d="M12.2270708,5.36145876 C12.227334,5.36090513 12.2275949,5.36035036 12.2278536,5.35979446 L12.2270708,5.36145878 Z M16.296277,18.5311833 L16.2968539,18.5315015 C16.2966618,18.5313952 16.2964695,18.5312892 16.296277,18.5311833 Z M12.0001514,5.84394422 L10.0867502,9.91229786 L9.82317927,9.95251185 L5.75129816,10.5737688 L8.8906833,13.7847801 L8.84988102,14.0342643 L8.15517375,18.2820285 L12.0001898,16.161513 L12.2416629,16.2947066 L15.8445678,18.2820259 L15.1096917,13.7847808 L15.2863492,13.6040561 L18.2490233,10.5731727 L13.9129022,9.91159476 L13.7994368,9.67029954 L12.0001514,5.84394422 Z"></path>
            </g>
        </g>
    </g>
</svg>