<?xml version="1.0" encoding="UTF-8"?>
<svg width="21px" height="21px" viewBox="0 0 21 21" version="1.1" xmlns="http://www.w3.org/2000/svg" xmlns:xlink="http://www.w3.org/1999/xlink">
    <!-- Generator: Sketch 46.2 (44496) - http://www.bohemiancoding.com/sketch -->
    <title>price</title>
    <desc>Created with Sketch.</desc>
    <defs></defs>
    <g id="Symbols" stroke="none" stroke-width="1" fill="none" fill-rule="evenodd">
        <g id="classes-op5-1" transform="translate(-469.000000, -553.000000)">
            <g id="cards" transform="translate(420.000000, 185.000000)">
                <g id="card1-class">
                    <g id="stat" transform="translate(0.000000, 363.000000)">
                        <g id="time">
                            <g id="time32" transform="translate(44.000000, 0.000000)">
                                <g id="time" transform="translate(5.666667, 5.666667)">
                                    <circle id="Oval-4" stroke="#898D9E" stroke-width="2" cx="10" cy="10" r="9"></circle>
                                    <path d="M8.33333333,6.33314083 C8.33333333,5.78096239 8.77719816,5.33333333 9.33333333,5.33333333 L9.33333333,5.33333333 C9.88561808,5.33333333 10.3333333,5.77704998 10.3333333,6.33314083 L10.3333333,10.3333333 L8.33333333,10.3333333 L8.33333333,6.33314083 Z" id="Path" fill="#898D9E"></path>
                                    <path d="M10.8333333,8.83626266 C10.8333333,8.28236009 11.2771982,7.83333333 11.8333333,7.83333333 L11.8333333,7.83333333 C12.3856181,7.83333333 12.8333333,8.27121468 12.8333333,8.83626266 L12.8333333,14.8333333 L10.8333333,14.8333333 L10.8333333,8.83626266 Z" id="Path" fill="#898D9E" transform="translate(11.833333, 11.333333) rotate(90.000000) translate(-11.833333, -11.333333) "></path>
                                    <path d="" id="Rectangle-3" fill="#0F1A3D" transform="translate(9.000000, 9.942809) scale(-1, 1) rotate(45.000000) translate(-9.000000, -9.942809) "></path>
                                </g>
                            </g>
                        </g>
                    </g>
                </g>
            </g>
        </g>
    </g>
</svg>