<?xml version="1.0" encoding="UTF-8"?>
<svg width="22px" height="22px" viewBox="0 0 22 22" version="1.1" xmlns="http://www.w3.org/2000/svg" xmlns:xlink="http://www.w3.org/1999/xlink">
    <!-- Generator: Sketch 46.2 (44496) - http://www.bohemiancoding.com/sketch -->
    <title>time</title>
    <desc>Created with Sketch.</desc>
    <defs></defs>
    <g id="Symbols" stroke="none" stroke-width="1" fill="none" fill-rule="evenodd">
        <g id="time-white" transform="translate(-1.000000, -1.000000)">
            <g id="time" transform="translate(1.000000, 1.000000)">
                <circle id="Oval-4" stroke="#FFFFFF" stroke-width="2" cx="11" cy="11" r="10"></circle>
                <path d="M9,6.99980749 C9,6.44762906 9.44386482,6 10,6 L10,6 C10.5522847,6 11,6.44371665 11,6.99980749 L11,11 L9,11 L9,6.99980749 Z" id="Path" fill="#FFFFFF"></path>
                <path d="M11.5,9.50292933 C11.5,8.94902676 11.9438648,8.5 12.5,8.5 L12.5,8.5 C13.0522847,8.5 13.5,8.93788135 13.5,9.50292933 L13.5,15.5 L11.5,15.5 L11.5,9.50292933 Z" id="Path" fill="#FFFFFF" transform="translate(12.500000, 12.000000) rotate(90.000000) translate(-12.500000, -12.000000) "></path>
                <path d="" id="Rectangle-3" fill="#0F1A3D" transform="translate(10.000000, 10.942809) scale(-1, 1) rotate(45.000000) translate(-10.000000, -10.942809) "></path>
            </g>
        </g>
    </g>
</svg>