<?xml version="1.0" encoding="UTF-8"?>
<svg width="18px" height="18px" viewBox="0 0 18 18" version="1.1" xmlns="http://www.w3.org/2000/svg">
    <!-- Generator: Sketch 46.2 (44496) - http://www.bohemiancoding.com/sketch -->
    <title>womans only</title>
    <desc>Created with Sketch.</desc>
    <defs></defs>
    <g id="User-Classes" stroke="none" stroke-width="1" fill="none" fill-rule="evenodd">
        <g id="classes-f0p5-5" transform="translate(-212.000000, -497.000000)" fill="#FF6300">
            <g id="left-side" transform="translate(0.000000, 67.000000)">
                <g id="tag" transform="translate(30.000000, 250.000000)">
                    <g id="bubble7" transform="translate(169.000000, 172.000000)">
                        <g id="time-solid" transform="translate(10.000000, 5.000000)">
                            <g id="time" transform="translate(3.000000, 3.000000)">
                                <path d="M9,18 C4.02943725,18 0,13.9705627 0,9 C0,4.02943725 4.02943725,0 9,0 C13.9705627,0 18,4.02943725 18,9 C18,13.9705627 13.9705627,18 9,18 Z M7,5.99077797 L7,11 L9,11 L9,5.99077797 C9,5.45097518 8.55228475,5 8,5 C7.44386482,5 7,5.44358641 7,5.99077797 Z M11.9906311,9 L9,9 L9,11 L11.9906311,11 C12.5566468,11 13,10.5522847 13,10 C13,9.44386482 12.5480902,9 11.9906311,9 Z" id="Combined-Shape"></path>
                            </g>
                        </g>
                    </g>
                </g>
            </g>
        </g>
    </g>
</svg>