<?xml version="1.0" encoding="UTF-8"?>
<svg width="14px" height="15px" viewBox="0 0 14 15" version="1.1" xmlns="http://www.w3.org/2000/svg" xmlns:xlink="http://www.w3.org/1999/xlink">
    <!-- Generator: Sketch 46.2 (44496) - http://www.bohemiancoding.com/sketch -->
    <title>pin-location</title>
    <desc>Created with Sketch.</desc>
    <defs></defs>
    <g id="Symbols" stroke="none" stroke-width="1" fill="none" fill-rule="evenodd">
        <g id="classes-op5-1" transform="translate(-431.000000, -462.000000)">
            <g id="cards" transform="translate(420.000000, 185.000000)">
                <g id="card1-class">
                    <g id="info" transform="translate(6.000000, 205.000000)">
                        <g id="seatcs" transform="translate(0.000000, 68.000000)">
                            <g id="alvailable-seats">
                                <g id="Page-1">
                                    <polygon id="Stroke-1" stroke-opacity="0.00784313771" stroke="#000000" stroke-width="1.33333335e-11" points="0 0 23.9999985 0 23.9999985 23.9999985 0 23.9999985"></polygon>
                                    <path d="M12.5714286,11.5 C10.2427154,11.5 8.5,10.0703706 8.5,8.57142857 C8.5,6.06614233 10.0661423,4.5 12.5714286,4.5 C14.0703706,4.5 15.5,6.24271543 15.5,8.57142857 C15.5,9.93385763 13.9338576,11.5 12.5714286,11.5 Z M5.5,18.5 L18.5,18.5 L18.5,17 C18.5,15.7991115 14.8192279,14.5 12,14.5 C9.18077205,14.5 5.5,15.7991115 5.5,17 L5.5,18.5 Z" id="Fill-2" stroke="#171D3D"></path>
                                </g>
                            </g>
                        </g>
                    </g>
                </g>
            </g>
        </g>
    </g>
</svg>